<?xml version="1.0" encoding="UTF-8"?>
<!DOCTYPE svg PUBLIC "-//W3C//DTD SVG 1.1//EN" "http://www.w3.org/Graphics/SVG/1.1/DTD/svg11.dtd">
<!-- Creator: CorelDRAW 2021 (64 Bit) -->
<svg xmlns="http://www.w3.org/2000/svg" xml:space="preserve" width="4.9414mm" height="4.9382mm" version="1.1" style="shape-rendering:geometricPrecision; text-rendering:geometricPrecision; image-rendering:optimizeQuality; fill-rule:evenodd; clip-rule:evenodd"
viewBox="0 0 0.5358 0.5355"
 xmlns:xlink="http://www.w3.org/1999/xlink"
 xmlns:xodm="http://www.corel.com/coreldraw/odm/2003">
 <defs>
  <style type="text/css">
   <![CDATA[
    .fil0 {fill:black}
   ]]>
  </style>
 </defs>
 <g id="Camada_x0020_1">
  <metadata id="CorelCorpID_0Corel-Layer"/>
  <g id="_1424763389040">
   <path class="fil0" d="M0.0428 0.2656c0.0024,-0.1195 0.0989,-0.2186 0.208,-0.2217l0.0002 0.0385 0.0339 0 0 -0.0385c0.1106,0.0031 0.2056,0.1033 0.208,0.2216l-0.0403 0.0007 -0 0.0333 0.0372 0.0002c0.0002,0.023 -0.0152,0.0592 -0.0243,0.0756 -0.0335,0.0607 -0.1019,0.1143 -0.1805,0.1163l-0.0003 -0.0385 -0.0338 0 0 0.0385c-0.0594,-0.0015 -0.1067,-0.0326 -0.1377,-0.0608 -0.0309,-0.0282 -0.0675,-0.0894 -0.0671,-0.131l0.0393 -0.0007 0 -0.0333 -0.0425 -0.0001zm0.1986 -0.264c-0.1384,0.015 -0.2566,0.1363 -0.2398,0.2941 0.0146,0.1372 0.1377,0.2549 0.2943,0.2382 0.1373,-0.0146 0.2551,-0.1376 0.2384,-0.2941 -0.0145,-0.1363 -0.1375,-0.255 -0.2928,-0.2382z"/>
   <path class="fil0" d="M0.2476 0.1423l0 0.1485c0,0.0235 0.0119,0.0246 0.0431,0.042 0.0099,0.0055 0.0487,0.0298 0.0588,0.0297 0.0133,-0.0002 0.0216,-0.0112 0.0183,-0.025 -0.0024,-0.0101 -0.0147,-0.0146 -0.0243,-0.0198 -0.0199,-0.0108 -0.0367,-0.0215 -0.0563,-0.0316 -0.0033,-0.0334 -0.0005,-0.0816 -0.0005,-0.1165 0,-0.0181 0.0032,-0.0414 -0.0095,-0.0492 -0.0166,-0.0103 -0.0297,0.0043 -0.0297,0.022z"/>
  </g>
 </g>
</svg>
